<svg width="212" height="132" viewBox="0 0 212 132" fill="none" xmlns="http://www.w3.org/2000/svg">
<g id="EV Auto">
<path d="M104.256 32.6615H76.1501L75.378 37.0241H103.483L100.665 52.8527H56.847L62.4449 20.3461H106.379L104.256 32.6615ZM107.151 15.945H63.2556L66.0353 0.155029H109.969L107.151 15.945Z" fill="url(#paint0_linear_1902_477)"/>
<path d="M139.007 52.8527H115.303L112.909 20.3461H128.661L129.973 37.0241L137.077 20.3461H152.79L139.007 52.8527ZM112.562 15.945L111.442 0.155029H127.232L128.39 15.945H112.562ZM154.72 15.945H138.93L145.686 0.155029H161.515L154.72 15.945Z" fill="url(#paint1_linear_1902_477)"/>
<path d="M34.6424 131.918L34.1019 124.892H19.1613L16.1886 131.918H0.47583L14.2583 99.4119H30.0869L24.875 111.727H33.214L32.2488 99.4119H48.0774L50.4324 131.918H34.6424ZM16.1114 95.0108L22.8675 79.2208H46.5718L47.73 95.0108H16.1114Z" fill="url(#paint2_linear_1902_477)"/>
<path d="M102.441 119.603C101.849 123.026 100.125 125.934 97.2678 128.328C94.4367 130.722 91.3224 131.918 87.9251 131.918H64.2208C61.2095 131.918 58.7644 130.953 56.8856 129.023C54.981 127.041 54.0287 124.609 54.0287 121.726C54.0287 121.366 54.0416 121.019 54.0673 120.684C54.0931 120.324 54.1317 119.963 54.1831 119.603L57.6191 99.4119H73.4477L70.5522 116.09H87.2301L90.1256 99.4119H105.954L102.441 119.603ZM74.2198 95.0108H58.4298L61.2095 79.2208H77.0381L74.2198 95.0108ZM106.726 95.0108H90.9363L93.716 79.2208H109.545L106.726 95.0108Z" fill="url(#paint3_linear_1902_477)"/>
<path d="M135.957 131.918H120.129L125.842 99.4119H141.671L135.957 131.918ZM158.696 95.0108H110.4L113.18 79.2208H161.515L158.696 95.0108Z" fill="url(#paint4_linear_1902_477)"/>
<path d="M206.381 119.603C205.789 123.026 204.065 125.934 201.208 128.328C198.377 130.722 195.262 131.918 191.865 131.918H168.161C165.15 131.918 162.704 130.953 160.826 129.023C158.921 127.041 157.969 124.609 157.969 121.726C157.969 121.366 157.982 121.019 158.007 120.684C158.033 120.324 158.072 119.963 158.123 119.603L161.559 99.4119H177.388L174.492 116.09H191.17L194.066 99.4119H209.894L206.381 119.603ZM211.477 89.4128C211.477 89.7732 211.451 90.1206 211.4 90.4552C211.374 90.7898 211.336 91.1373 211.284 91.4976L210.666 95.0108H162.37L162.988 91.4976C163.554 88.1002 165.252 85.2048 168.084 82.8112C170.94 80.4176 174.068 79.2208 177.465 79.2208H201.169C204.181 79.2208 206.651 80.1859 208.582 82.1162C210.512 84.0466 211.477 86.4788 211.477 89.4128Z" fill="url(#paint5_linear_1902_477)"/>
</g>
<defs>
<linearGradient id="paint0_linear_1902_477" x1="4.2681" y1="69.5344" x2="211.816" y2="69.5344" gradientUnits="userSpaceOnUse">
<stop stop-color="#04CE66"/>
<stop offset="1" stop-color="#87F061"/>
</linearGradient>
<linearGradient id="paint1_linear_1902_477" x1="4.2681" y1="69.5344" x2="211.816" y2="69.5344" gradientUnits="userSpaceOnUse">
<stop stop-color="#04CE66"/>
<stop offset="1" stop-color="#87F061"/>
</linearGradient>
<linearGradient id="paint2_linear_1902_477" x1="4.2681" y1="69.5344" x2="211.816" y2="69.5344" gradientUnits="userSpaceOnUse">
<stop stop-color="#04CE66"/>
<stop offset="1" stop-color="#87F061"/>
</linearGradient>
<linearGradient id="paint3_linear_1902_477" x1="4.2681" y1="69.5344" x2="211.816" y2="69.5344" gradientUnits="userSpaceOnUse">
<stop stop-color="#04CE66"/>
<stop offset="1" stop-color="#87F061"/>
</linearGradient>
<linearGradient id="paint4_linear_1902_477" x1="4.2681" y1="69.5344" x2="211.816" y2="69.5344" gradientUnits="userSpaceOnUse">
<stop stop-color="#04CE66"/>
<stop offset="1" stop-color="#87F061"/>
</linearGradient>
<linearGradient id="paint5_linear_1902_477" x1="4.2681" y1="69.5344" x2="211.816" y2="69.5344" gradientUnits="userSpaceOnUse">
<stop stop-color="#04CE66"/>
<stop offset="1" stop-color="#87F061"/>
</linearGradient>
</defs>
</svg>
