<svg width="76" height="78" viewBox="0 0 76 78" fill="none" xmlns="http://www.w3.org/2000/svg">
<g id="honda-car 1" clip-path="url(#clip0_1902_430)">
<path id="Vector" fill-rule="evenodd" clip-rule="evenodd" d="M69.9711 49.4128C69.4163 53.5967 69.0338 59.0754 66.1435 62.3175C65.2814 63.2911 60.9899 65.9095 58.8456 65.9095C58.1058 65.9095 57.6199 65.5977 57.6199 64.7991C57.6199 64.7228 57.6231 64.6432 57.6325 64.5573C61.8551 30.9595 60.1623 12.5888 61.9052 12.5125C68.1906 14.4119 71.0401 15.4618 71.0401 32.3817C71.0433 39.168 70.4132 46.0722 69.9711 49.4128ZM54.5541 12.4138C47.9114 37.6059 48.5446 44.5704 38.5351 44.5704C31.2027 44.5704 29.5037 41.7292 27.0428 32.6171C26.1086 29.1555 21.8735 12.0798 21.8735 11.9684C21.8735 11.2685 30.9488 10.7244 39.5382 10.7244C47.2499 10.7244 54.5666 11.1635 54.5666 12.3248C54.5666 12.3534 54.5635 12.382 54.5541 12.4138ZM48.4568 66.8258C48.0681 66.8958 43.3596 67.0358 38.4755 67.0358C32.9708 67.0358 27.2466 66.8577 27.2466 66.2086C27.2466 66.1163 29.466 58.665 29.466 58.665C30.5977 54.8152 30.5005 52.6136 38.253 52.6136C46.1402 52.6136 45.9834 55.0793 47.0367 58.665C48.5697 63.8892 49.2593 65.6868 49.2593 66.3486C49.2625 66.7686 48.9803 66.7304 48.4568 66.8258ZM10.3624 62.3175C6.16486 57.6055 5.52222 40.0494 5.52222 32.3562C5.52222 31.7135 5.52222 31.0899 5.52222 30.4854C5.52222 19.9861 5.7636 15.185 14.6038 12.5157C16.6634 12.6047 14.2527 27.7715 18.8766 64.5605C18.886 64.6401 18.8891 64.7164 18.8891 64.7864C18.8891 65.585 18.397 65.8968 17.6446 65.8968C15.5129 65.8936 11.3122 63.3865 10.3624 62.3175ZM75.7361 25.8244C74.8615 10.4381 69.1843 7.24371 38.253 7.21826C6.97051 7.24371 0.606812 9.58857 0.606812 29.9986C0.606812 33.3425 0.776092 37.17 1.03628 41.5511C2.68834 68.8398 6.74794 70.6915 38.253 70.8506C64.4977 70.7169 76.106 71.3151 76.106 37.4754C76.106 33.9757 75.9837 30.1036 75.7361 25.8244Z" fill="#CECECE"/>
</g>
<defs>
<clipPath id="clip0_1902_430">
<rect width="75.2358" height="76.3588" fill="white" transform="translate(0.633972 0.855469)"/>
</clipPath>
</defs>
</svg>
